<svg width="0" height="0" class="hidden">
  <symbol xmlns="http://www.w3.org/2000/svg" fill="#fff" viewBox="0 0 24 24" id="icon-like">
    <path d="M4 21h1V8H4a2 2 0 0 0-2 2v9a2 2 0 0 0 2 2zM20 8h-7l1.122-3.368A2 2 0 0 0 12.225 2H12L7 7.438V21h11l3.912-8.596L22 12v-2a2 2 0 0 0-2-2z"></path>
  </symbol>
  <symbol xmlns="http://www.w3.org/2000/svg" fill="#fff" viewBox="0 0 24 24" id="icon-paint-roll">
    <path d="M18 2H7c-1.103 0-2 .897-2 2v3c0 1.103.897 2 2 2h11c1.103 0 2-.897 2-2V4c0-1.103-.897-2-2-2z"></path>
    <path d="M13 15v-2c0-1.103-.897-2-2-2H4V5c-1.103 0-2 .897-2 2v4c0 1.103.897 2 2 2h7v2a1 1 0 0 0-1 1v5a1 1 0 0 0 1 1h2a1 1 0 0 0 1-1v-5a1 1 0 0 0-1-1z"></path>
  </symbol>
  <symbol xmlns="http://www.w3.org/2000/svg" fill="#fff" viewBox="0 0 24 24" id="icon-star">
    <path d="M21.947 9.179a1.001 1.001 0 0 0-.868-.676l-5.701-.453-2.467-5.461a.998.998 0 0 0-1.822-.001L8.622 8.05l-5.701.453a1 1 0 0 0-.619 1.713l4.213 4.107-1.49 6.452a1 1 0 0 0 1.53 1.057L12 18.202l5.445 3.63a1.001 1.001 0 0 0 1.517-1.106l-1.829-6.4 4.536-4.082c.297-.268.406-.686.278-1.065z"></path>
  </symbol>
  <symbol xmlns="http://www.w3.org/2000/svg" fill="#fff" viewBox="0 0 24 24" id="icon-dollar">
    <path d="M15.999 8.5h2c0-2.837-2.755-4.131-5-4.429V2h-2v2.071c-2.245.298-5 1.592-5 4.429 0 2.706 2.666 4.113 5 4.43v4.97c-1.448-.251-3-1.024-3-2.4h-2c0 2.589 2.425 4.119 5 4.436V22h2v-2.07c2.245-.298 5-1.593 5-4.43s-2.755-4.131-5-4.429V6.1c1.33.239 3 .941 3 2.4zm-8 0c0-1.459 1.67-2.161 3-2.4v4.799c-1.371-.253-3-1.002-3-2.399zm8 7c0 1.459-1.67 2.161-3 2.4v-4.8c1.33.239 3 .941 3 2.4z"></path>
  </symbol>
  <symbol xmlns="http://www.w3.org/2000/svg" fill="#fff" viewBox="0 0 24 24" id="icon-chair">
    <path d="M19 13V4c0-1.103-.897-2-2-2H7c-1.103 0-2 .897-2 2v9a1 1 0 0 0-1 1v8h2v-5h12v5h2v-8a1 1 0 0 0-1-1zm-2-9v9h-2V4h2zm-4 0v9h-2V4h2zM7 4h2v9H7V4z"></path>
  </symbol>
  <symbol xmlns="http://www.w3.org/2000/svg" fill="#fff" viewBox="0 0 24 24" id="icon-car">
    <path d="m20.772 10.155-1.368-4.104A2.995 2.995 0 0 0 16.559 4H7.441a2.995 2.995 0 0 0-2.845 2.051l-1.368 4.104A2 2 0 0 0 2 12v5c0 .738.404 1.376 1 1.723V21a1 1 0 0 0 1 1h1a1 1 0 0 0 1-1v-2h12v2a1 1 0 0 0 1 1h1a1 1 0 0 0 1-1v-2.277A1.99 1.99 0 0 0 22 17v-5a2 2 0 0 0-1.228-1.845zM7.441 6h9.117c.431 0 .813.274.949.684L18.613 10H5.387l1.105-3.316A1 1 0 0 1 7.441 6zM5.5 16a1.5 1.5 0 1 1 .001-3.001A1.5 1.5 0 0 1 5.5 16zm13 0a1.5 1.5 0 1 1 .001-3.001A1.5 1.5 0 0 1 18.5 16z"></path>
  </symbol>
</svg>